  0
SECTION
  2
BLOCKS
  0
ENDSEC
  0
SECTION
  2
ENTITIES
  0
LINE
  8
0
 10
203.7
 20
44.6855
 11
203.7
 21
47.3855
  0
LINE
  8
0
 10
203.7
 20
47.3855
 11
233.7
 21
47.3855
  0
LINE
  8
0
 10
233.7
 20
47.3855
 11
233.7
 21
44.6855
  0
LINE
  8
0
 10
233.7
 20
44.6855
 11
243.7
 21
44.6855
  0
LINE
  8
0
 10
243.7
 20
44.6855
 11
243.7
 21
47.3855
  0
LINE
  8
0
 10
243.7
 20
47.3855
 11
253.7
 21
47.3855
  0
LINE
  8
0
 10
253.7
 20
47.3855
 11
253.7
 21
44.6855
  0
LINE
  8
0
 10
253.7
 20
44.6855
 11
263.7
 21
44.6855
  0
LINE
  8
0
 10
263.7
 20
44.6855
 11
263.7
 21
47.3855
  0
LINE
  8
0
 10
263.7
 20
47.3855
 11
267.7
 21
47.3855
  0
LINE
  8
0
 10
267.7
 20
47.3855
 11
268.483
 21
47.4368
  0
LINE
  8
0
 10
268.483
 20
47.4368
 11
269.253
 21
47.5899
  0
LINE
  8
0
 10
269.253
 20
47.5899
 11
269.996
 21
47.8422
  0
LINE
  8
0
 10
269.996
 20
47.8422
 11
270.7
 21
48.1893
  0
LINE
  8
0
 10
270.7
 20
48.1893
 11
271.353
 21
48.6254
  0
LINE
  8
0
 10
271.353
 20
48.6254
 11
271.943
 21
49.1428
  0
LINE
  8
0
 10
271.943
 20
49.1428
 11
272.46
 21
49.7329
  0
LINE
  8
0
 10
272.46
 20
49.7329
 11
272.896
 21
50.3855
  0
LINE
  8
0
 10
272.896
 20
50.3855
 11
273.243
 21
51.0894
  0
LINE
  8
0
 10
273.243
 20
51.0894
 11
273.496
 21
51.8326
  0
LINE
  8
0
 10
273.496
 20
51.8326
 11
273.649
 21
52.6023
  0
LINE
  8
0
 10
273.649
 20
52.6023
 11
273.7
 21
53.3855
  0
LINE
  8
0
 10
273.7
 20
53.3855
 11
273.7
 21
56.3855
  0
LINE
  8
0
 10
273.7
 20
56.3855
 11
276.4
 21
56.3855
  0
LINE
  8
0
 10
276.4
 20
56.3855
 11
276.4
 21
66.3855
  0
LINE
  8
0
 10
276.4
 20
66.3855
 11
273.7
 21
66.3855
  0
LINE
  8
0
 10
273.7
 20
66.3855
 11
273.7
 21
70.3538
  0
LINE
  8
0
 10
273.7
 20
70.3538
 11
246.7
 21
70.3538
  0
LINE
  8
0
 10
246.7
 20
70.3538
 11
246.7
 21
70.5538
  0
LINE
  8
0
 10
246.7
 20
70.5538
 11
273.7
 21
70.5538
  0
LINE
  8
0
 10
273.7
 20
70.5538
 11
273.7
 21
72.4903
  0
LINE
  8
0
 10
273.7
 20
72.4903
 11
246.7
 21
72.4903
  0
LINE
  8
0
 10
246.7
 20
72.4903
 11
246.7
 21
72.6903
  0
LINE
  8
0
 10
246.7
 20
72.6903
 11
273.7
 21
72.6903
  0
LINE
  8
0
 10
273.7
 20
72.6903
 11
273.7
 21
74.6269
  0
LINE
  8
0
 10
273.7
 20
74.6269
 11
246.7
 21
74.6269
  0
LINE
  8
0
 10
246.7
 20
74.6269
 11
246.7
 21
74.8269
  0
LINE
  8
0
 10
246.7
 20
74.8269
 11
273.7
 21
74.8269
  0
LINE
  8
0
 10
273.7
 20
74.8269
 11
273.7
 21
76.7634
  0
LINE
  8
0
 10
273.7
 20
76.7634
 11
246.7
 21
76.7634
  0
LINE
  8
0
 10
246.7
 20
76.7634
 11
246.7
 21
76.9634
  0
LINE
  8
0
 10
246.7
 20
76.9634
 11
273.7
 21
76.9634
  0
LINE
  8
0
 10
273.7
 20
76.9634
 11
273.7
 21
83
  0
LINE
  8
0
 10
273.7
 20
83
 11
276.4
 21
83
  0
LINE
  8
0
 10
276.4
 20
83
 11
276.4
 21
93
  0
LINE
  8
0
 10
276.4
 20
93
 11
273.7
 21
93
  0
LINE
  8
0
 10
273.7
 20
93
 11
273.7
 21
103
  0
LINE
  8
0
 10
273.7
 20
103
 11
276.4
 21
103
  0
LINE
  8
0
 10
276.4
 20
103
 11
276.4
 21
113
  0
LINE
  8
0
 10
276.4
 20
113
 11
273.7
 21
113
  0
LINE
  8
0
 10
273.7
 20
113
 11
273.7
 21
123
  0
LINE
  8
0
 10
273.7
 20
123
 11
276.4
 21
123
  0
LINE
  8
0
 10
276.4
 20
123
 11
276.4
 21
133
  0
LINE
  8
0
 10
276.4
 20
133
 11
273.7
 21
133
  0
LINE
  8
0
 10
273.7
 20
133
 11
273.7
 21
143
  0
LINE
  8
0
 10
273.7
 20
143
 11
276.4
 21
143
  0
LINE
  8
0
 10
276.4
 20
143
 11
276.4
 21
153
  0
LINE
  8
0
 10
276.4
 20
153
 11
273.7
 21
153
  0
LINE
  8
0
 10
273.7
 20
153
 11
273.7
 21
159.037
  0
LINE
  8
0
 10
273.7
 20
159.037
 11
246.7
 21
159.037
  0
LINE
  8
0
 10
246.7
 20
159.037
 11
246.7
 21
159.237
  0
LINE
  8
0
 10
246.7
 20
159.237
 11
273.7
 21
159.237
  0
LINE
  8
0
 10
273.7
 20
159.237
 11
273.7
 21
161.173
  0
LINE
  8
0
 10
273.7
 20
161.173
 11
246.7
 21
161.173
  0
LINE
  8
0
 10
246.7
 20
161.173
 11
246.7
 21
161.373
  0
LINE
  8
0
 10
246.7
 20
161.373
 11
273.7
 21
161.373
  0
LINE
  8
0
 10
273.7
 20
161.373
 11
273.7
 21
163.31
  0
LINE
  8
0
 10
273.7
 20
163.31
 11
246.7
 21
163.31
  0
LINE
  8
0
 10
246.7
 20
163.31
 11
246.7
 21
163.51
  0
LINE
  8
0
 10
246.7
 20
163.51
 11
273.7
 21
163.51
  0
LINE
  8
0
 10
273.7
 20
163.51
 11
273.7
 21
165.446
  0
LINE
  8
0
 10
273.7
 20
165.446
 11
246.7
 21
165.446
  0
LINE
  8
0
 10
246.7
 20
165.446
 11
246.7
 21
165.646
  0
LINE
  8
0
 10
246.7
 20
165.646
 11
273.7
 21
165.646
  0
LINE
  8
0
 10
273.7
 20
165.646
 11
273.7
 21
169.615
  0
LINE
  8
0
 10
273.7
 20
169.615
 11
276.4
 21
169.615
  0
LINE
  8
0
 10
276.4
 20
169.615
 11
276.4
 21
179.615
  0
LINE
  8
0
 10
276.4
 20
179.615
 11
273.7
 21
179.615
  0
LINE
  8
0
 10
273.7
 20
179.615
 11
273.7
 21
182.615
  0
LINE
  8
0
 10
273.7
 20
182.615
 11
273.649
 21
183.398
  0
LINE
  8
0
 10
273.649
 20
183.398
 11
273.496
 21
184.167
  0
LINE
  8
0
 10
273.496
 20
184.167
 11
273.243
 21
184.911
  0
LINE
  8
0
 10
273.243
 20
184.911
 11
272.896
 21
185.615
  0
LINE
  8
0
 10
272.896
 20
185.615
 11
272.46
 21
186.267
  0
LINE
  8
0
 10
272.46
 20
186.267
 11
271.943
 21
186.857
  0
LINE
  8
0
 10
271.943
 20
186.857
 11
271.353
 21
187.375
  0
LINE
  8
0
 10
271.353
 20
187.375
 11
270.7
 21
187.811
  0
LINE
  8
0
 10
270.7
 20
187.811
 11
269.996
 21
188.158
  0
LINE
  8
0
 10
269.996
 20
188.158
 11
269.253
 21
188.41
  0
LINE
  8
0
 10
269.253
 20
188.41
 11
268.483
 21
188.563
  0
LINE
  8
0
 10
268.483
 20
188.563
 11
267.7
 21
188.615
  0
LINE
  8
0
 10
267.7
 20
188.615
 11
263.7
 21
188.615
  0
LINE
  8
0
 10
263.7
 20
188.615
 11
263.7
 21
191.315
  0
LINE
  8
0
 10
263.7
 20
191.315
 11
253.7
 21
191.315
  0
LINE
  8
0
 10
253.7
 20
191.315
 11
253.7
 21
188.615
  0
LINE
  8
0
 10
253.7
 20
188.615
 11
243.7
 21
188.615
  0
LINE
  8
0
 10
243.7
 20
188.615
 11
243.7
 21
191.315
  0
LINE
  8
0
 10
243.7
 20
191.315
 11
233.7
 21
191.315
  0
LINE
  8
0
 10
233.7
 20
191.315
 11
233.7
 21
188.615
  0
LINE
  8
0
 10
233.7
 20
188.615
 11
223.7
 21
188.615
  0
LINE
  8
0
 10
223.7
 20
188.615
 11
223.7
 21
191.315
  0
LINE
  8
0
 10
223.7
 20
191.315
 11
213.7
 21
191.315
  0
LINE
  8
0
 10
213.7
 20
191.315
 11
213.7
 21
188.615
  0
LINE
  8
0
 10
213.7
 20
188.615
 11
203.7
 21
188.615
  0
LINE
  8
0
 10
203.7
 20
188.615
 11
203.7
 21
191.315
  0
LINE
  8
0
 10
203.7
 20
191.315
 11
193.7
 21
191.315
  0
LINE
  8
0
 10
193.7
 20
191.315
 11
193.7
 21
188.615
  0
LINE
  8
0
 10
193.7
 20
188.615
 11
189.7
 21
188.615
  0
LINE
  8
0
 10
189.7
 20
188.615
 11
188.917
 21
188.563
  0
LINE
  8
0
 10
188.917
 20
188.563
 11
188.147
 21
188.41
  0
LINE
  8
0
 10
188.147
 20
188.41
 11
187.404
 21
188.158
  0
LINE
  8
0
 10
187.404
 20
188.158
 11
186.7
 21
187.811
  0
LINE
  8
0
 10
186.7
 20
187.811
 11
186.047
 21
187.375
  0
LINE
  8
0
 10
186.047
 20
187.375
 11
185.457
 21
186.857
  0
LINE
  8
0
 10
185.457
 20
186.857
 11
184.94
 21
186.267
  0
LINE
  8
0
 10
184.94
 20
186.267
 11
184.504
 21
185.615
  0
LINE
  8
0
 10
184.504
 20
185.615
 11
184.157
 21
184.911
  0
LINE
  8
0
 10
184.157
 20
184.911
 11
183.904
 21
184.167
  0
LINE
  8
0
 10
183.904
 20
184.167
 11
183.751
 21
183.398
  0
LINE
  8
0
 10
183.751
 20
183.398
 11
183.7
 21
182.615
  0
LINE
  8
0
 10
183.7
 20
182.615
 11
183.7
 21
179.615
  0
LINE
  8
0
 10
183.7
 20
179.615
 11
181
 21
179.615
  0
LINE
  8
0
 10
181
 20
179.615
 11
181
 21
169.615
  0
LINE
  8
0
 10
181
 20
169.615
 11
183.7
 21
169.615
  0
LINE
  8
0
 10
183.7
 20
169.615
 11
183.7
 21
164.578
  0
LINE
  8
0
 10
183.7
 20
164.578
 11
210.7
 21
164.578
  0
LINE
  8
0
 10
210.7
 20
164.578
 11
210.7
 21
164.378
  0
LINE
  8
0
 10
210.7
 20
164.378
 11
183.7
 21
164.378
  0
LINE
  8
0
 10
183.7
 20
164.378
 11
183.7
 21
162.441
  0
LINE
  8
0
 10
183.7
 20
162.441
 11
210.7
 21
162.441
  0
LINE
  8
0
 10
210.7
 20
162.441
 11
210.7
 21
162.241
  0
LINE
  8
0
 10
210.7
 20
162.241
 11
183.7
 21
162.241
  0
LINE
  8
0
 10
183.7
 20
162.241
 11
183.7
 21
160.305
  0
LINE
  8
0
 10
183.7
 20
160.305
 11
210.7
 21
160.305
  0
LINE
  8
0
 10
210.7
 20
160.305
 11
210.7
 21
160.105
  0
LINE
  8
0
 10
210.7
 20
160.105
 11
183.7
 21
160.105
  0
LINE
  8
0
 10
183.7
 20
160.105
 11
183.7
 21
158.168
  0
LINE
  8
0
 10
183.7
 20
158.168
 11
210.7
 21
158.168
  0
LINE
  8
0
 10
210.7
 20
158.168
 11
210.7
 21
157.968
  0
LINE
  8
0
 10
210.7
 20
157.968
 11
183.7
 21
157.968
  0
LINE
  8
0
 10
183.7
 20
157.968
 11
183.7
 21
153
  0
LINE
  8
0
 10
183.7
 20
153
 11
181
 21
153
  0
LINE
  8
0
 10
181
 20
153
 11
181
 21
143
  0
LINE
  8
0
 10
181
 20
143
 11
183.7
 21
143
  0
LINE
  8
0
 10
183.7
 20
143
 11
183.7
 21
133
  0
LINE
  8
0
 10
183.7
 20
133
 11
181
 21
133
  0
LINE
  8
0
 10
181
 20
133
 11
181
 21
123
  0
LINE
  8
0
 10
181
 20
123
 11
183.7
 21
123
  0
LINE
  8
0
 10
183.7
 20
123
 11
183.7
 21
113
  0
LINE
  8
0
 10
183.7
 20
113
 11
181
 21
113
  0
LINE
  8
0
 10
181
 20
113
 11
181
 21
103
  0
LINE
  8
0
 10
181
 20
103
 11
183.7
 21
103
  0
LINE
  8
0
 10
183.7
 20
103
 11
183.7
 21
93
  0
LINE
  8
0
 10
183.7
 20
93
 11
181
 21
93
  0
LINE
  8
0
 10
181
 20
93
 11
181
 21
83
  0
LINE
  8
0
 10
181
 20
83
 11
183.7
 21
83
  0
LINE
  8
0
 10
183.7
 20
83
 11
183.7
 21
78.0317
  0
LINE
  8
0
 10
183.7
 20
78.0317
 11
210.7
 21
78.0317
  0
LINE
  8
0
 10
210.7
 20
78.0317
 11
210.7
 21
77.8317
  0
LINE
  8
0
 10
210.7
 20
77.8317
 11
183.7
 21
77.8317
  0
LINE
  8
0
 10
183.7
 20
77.8317
 11
183.7
 21
75.8952
  0
LINE
  8
0
 10
183.7
 20
75.8952
 11
210.7
 21
75.8952
  0
LINE
  8
0
 10
210.7
 20
75.8952
 11
210.7
 21
75.6952
  0
LINE
  8
0
 10
210.7
 20
75.6952
 11
183.7
 21
75.6952
  0
LINE
  8
0
 10
183.7
 20
75.6952
 11
183.7
 21
73.7586
  0
LINE
  8
0
 10
183.7
 20
73.7586
 11
210.7
 21
73.7586
  0
LINE
  8
0
 10
210.7
 20
73.7586
 11
210.7
 21
73.5586
  0
LINE
  8
0
 10
210.7
 20
73.5586
 11
183.7
 21
73.5586
  0
LINE
  8
0
 10
183.7
 20
73.5586
 11
183.7
 21
71.622
  0
LINE
  8
0
 10
183.7
 20
71.622
 11
210.7
 21
71.622
  0
LINE
  8
0
 10
210.7
 20
71.622
 11
210.7
 21
71.422
  0
LINE
  8
0
 10
210.7
 20
71.422
 11
183.7
 21
71.422
  0
LINE
  8
0
 10
183.7
 20
71.422
 11
183.7
 21
66.3855
  0
LINE
  8
0
 10
183.7
 20
66.3855
 11
181
 21
66.3855
  0
LINE
  8
0
 10
181
 20
66.3855
 11
181
 21
56.3855
  0
LINE
  8
0
 10
181
 20
56.3855
 11
183.7
 21
56.3855
  0
LINE
  8
0
 10
183.7
 20
56.3855
 11
183.7
 21
53.3855
  0
LINE
  8
0
 10
183.7
 20
53.3855
 11
183.751
 21
52.6023
  0
LINE
  8
0
 10
183.751
 20
52.6023
 11
183.904
 21
51.8326
  0
LINE
  8
0
 10
183.904
 20
51.8326
 11
184.157
 21
51.0894
  0
LINE
  8
0
 10
184.157
 20
51.0894
 11
184.504
 21
50.3855
  0
LINE
  8
0
 10
184.504
 20
50.3855
 11
184.94
 21
49.7329
  0
LINE
  8
0
 10
184.94
 20
49.7329
 11
185.457
 21
49.1428
  0
LINE
  8
0
 10
185.457
 20
49.1428
 11
186.047
 21
48.6254
  0
LINE
  8
0
 10
186.047
 20
48.6254
 11
186.7
 21
48.1893
  0
LINE
  8
0
 10
186.7
 20
48.1893
 11
187.404
 21
47.8422
  0
LINE
  8
0
 10
187.404
 20
47.8422
 11
188.147
 21
47.5899
  0
LINE
  8
0
 10
188.147
 20
47.5899
 11
188.917
 21
47.4368
  0
LINE
  8
0
 10
188.917
 20
47.4368
 11
189.7
 21
47.3855
  0
LINE
  8
0
 10
189.7
 20
47.3855
 11
193.7
 21
47.3855
  0
LINE
  8
0
 10
193.7
 20
47.3855
 11
193.7
 21
44.6855
  0
LINE
  8
0
 10
193.7
 20
44.6855
 11
203.7
 21
44.6855
  0
LINE
  8
0
 10
186.7
 20
165.446
 11
186.7
 21
165.646
  0
LINE
  8
0
 10
186.7
 20
165.646
 11
240.7
 21
165.646
  0
LINE
  8
0
 10
240.7
 20
165.646
 11
240.7
 21
165.446
  0
LINE
  8
0
 10
240.7
 20
165.446
 11
186.7
 21
165.446
  0
LINE
  8
0
 10
216.7
 20
164.378
 11
216.7
 21
164.578
  0
LINE
  8
0
 10
216.7
 20
164.578
 11
270.7
 21
164.578
  0
LINE
  8
0
 10
270.7
 20
164.578
 11
270.7
 21
164.378
  0
LINE
  8
0
 10
270.7
 20
164.378
 11
216.7
 21
164.378
  0
LINE
  8
0
 10
186.7
 20
163.31
 11
186.7
 21
163.51
  0
LINE
  8
0
 10
186.7
 20
163.51
 11
240.7
 21
163.51
  0
LINE
  8
0
 10
240.7
 20
163.51
 11
240.7
 21
163.31
  0
LINE
  8
0
 10
240.7
 20
163.31
 11
186.7
 21
163.31
  0
LINE
  8
0
 10
216.7
 20
162.241
 11
216.7
 21
162.441
  0
LINE
  8
0
 10
216.7
 20
162.441
 11
270.7
 21
162.441
  0
LINE
  8
0
 10
270.7
 20
162.441
 11
270.7
 21
162.241
  0
LINE
  8
0
 10
270.7
 20
162.241
 11
216.7
 21
162.241
  0
LINE
  8
0
 10
186.7
 20
161.173
 11
186.7
 21
161.373
  0
LINE
  8
0
 10
186.7
 20
161.373
 11
240.7
 21
161.373
  0
LINE
  8
0
 10
240.7
 20
161.373
 11
240.7
 21
161.173
  0
LINE
  8
0
 10
240.7
 20
161.173
 11
186.7
 21
161.173
  0
LINE
  8
0
 10
216.7
 20
160.105
 11
216.7
 21
160.305
  0
LINE
  8
0
 10
216.7
 20
160.305
 11
270.7
 21
160.305
  0
LINE
  8
0
 10
270.7
 20
160.305
 11
270.7
 21
160.105
  0
LINE
  8
0
 10
270.7
 20
160.105
 11
216.7
 21
160.105
  0
LINE
  8
0
 10
186.7
 20
159.037
 11
186.7
 21
159.237
  0
LINE
  8
0
 10
186.7
 20
159.237
 11
240.7
 21
159.237
  0
LINE
  8
0
 10
240.7
 20
159.237
 11
240.7
 21
159.037
  0
LINE
  8
0
 10
240.7
 20
159.037
 11
186.7
 21
159.037
  0
LINE
  8
0
 10
216.7
 20
157.968
 11
216.7
 21
158.168
  0
LINE
  8
0
 10
216.7
 20
158.168
 11
270.7
 21
158.168
  0
LINE
  8
0
 10
270.7
 20
158.168
 11
270.7
 21
157.968
  0
LINE
  8
0
 10
270.7
 20
157.968
 11
216.7
 21
157.968
  0
LINE
  8
0
 10
216.7
 20
77.8317
 11
216.7
 21
78.0317
  0
LINE
  8
0
 10
216.7
 20
78.0317
 11
270.7
 21
78.0317
  0
LINE
  8
0
 10
270.7
 20
78.0317
 11
270.7
 21
77.8317
  0
LINE
  8
0
 10
270.7
 20
77.8317
 11
216.7
 21
77.8317
  0
LINE
  8
0
 10
186.7
 20
76.7634
 11
186.7
 21
76.9634
  0
LINE
  8
0
 10
186.7
 20
76.9634
 11
240.7
 21
76.9634
  0
LINE
  8
0
 10
240.7
 20
76.9634
 11
240.7
 21
76.7634
  0
LINE
  8
0
 10
240.7
 20
76.7634
 11
186.7
 21
76.7634
  0
LINE
  8
0
 10
216.7
 20
75.6952
 11
216.7
 21
75.8952
  0
LINE
  8
0
 10
216.7
 20
75.8952
 11
270.7
 21
75.8952
  0
LINE
  8
0
 10
270.7
 20
75.8952
 11
270.7
 21
75.6952
  0
LINE
  8
0
 10
270.7
 20
75.6952
 11
216.7
 21
75.6952
  0
LINE
  8
0
 10
216.7
 20
73.5586
 11
216.7
 21
73.7586
  0
LINE
  8
0
 10
216.7
 20
73.7586
 11
270.7
 21
73.7586
  0
LINE
  8
0
 10
270.7
 20
73.7586
 11
270.7
 21
73.5586
  0
LINE
  8
0
 10
270.7
 20
73.5586
 11
216.7
 21
73.5586
  0
LINE
  8
0
 10
186.7
 20
72.4903
 11
186.7
 21
72.6903
  0
LINE
  8
0
 10
186.7
 20
72.6903
 11
240.7
 21
72.6903
  0
LINE
  8
0
 10
240.7
 20
72.6903
 11
240.7
 21
72.4903
  0
LINE
  8
0
 10
240.7
 20
72.4903
 11
186.7
 21
72.4903
  0
LINE
  8
0
 10
216.7
 20
71.422
 11
216.7
 21
71.622
  0
LINE
  8
0
 10
216.7
 20
71.622
 11
270.7
 21
71.622
  0
LINE
  8
0
 10
270.7
 20
71.622
 11
270.7
 21
71.422
  0
LINE
  8
0
 10
270.7
 20
71.422
 11
216.7
 21
71.422
  0
LINE
  8
0
 10
186.7
 20
70.3538
 11
186.7
 21
70.5538
  0
LINE
  8
0
 10
186.7
 20
70.5538
 11
240.7
 21
70.5538
  0
LINE
  8
0
 10
240.7
 20
70.5538
 11
240.7
 21
70.3538
  0
LINE
  8
0
 10
240.7
 20
70.3538
 11
186.7
 21
70.3538
  0
LINE
  8
0
 10
186.7
 20
74.6269
 11
186.7
 21
74.8269
  0
LINE
  8
0
 10
186.7
 20
74.8269
 11
240.7
 21
74.8269
  0
LINE
  8
0
 10
240.7
 20
74.8269
 11
240.7
 21
74.6269
  0
LINE
  8
0
 10
240.7
 20
74.6269
 11
186.7
 21
74.6269
  0
LINE
  8
0
 10
223.7
 20
47.3855
 11
213.7
 21
47.3855
  0
LINE
  8
0
 10
213.7
 20
47.3855
 11
213.7
 21
44.6855
  0
LINE
  8
0
 10
213.7
 20
44.6855
 11
223.7
 21
44.6855
  0
LINE
  8
0
 10
223.7
 20
44.6855
 11
223.7
 21
47.3855
  0
LINE
  8
0
 10
75.5
 20
162.241
 11
75.5
 21
160.305
  0
LINE
  8
0
 10
75.5
 20
160.305
 11
106.1
 21
160.305
  0
LINE
  8
0
 10
106.1
 20
160.305
 11
106.1
 21
160.105
  0
LINE
  8
0
 10
106.1
 20
160.105
 11
75.5
 21
160.105
  0
LINE
  8
0
 10
75.5
 20
160.105
 11
75.5
 21
158.168
  0
LINE
  8
0
 10
75.5
 20
158.168
 11
106.1
 21
158.168
  0
LINE
  8
0
 10
106.1
 20
158.168
 11
106.1
 21
157.968
  0
LINE
  8
0
 10
106.1
 20
157.968
 11
75.5
 21
157.968
  0
LINE
  8
0
 10
75.5
 20
157.968
 11
75.5
 21
78.0317
  0
LINE
  8
0
 10
75.5
 20
78.0317
 11
106.1
 21
78.0317
  0
LINE
  8
0
 10
106.1
 20
78.0317
 11
106.1
 21
77.8317
  0
LINE
  8
0
 10
106.1
 20
77.8317
 11
75.5
 21
77.8317
  0
LINE
  8
0
 10
75.5
 20
77.8317
 11
75.5
 21
75.8952
  0
LINE
  8
0
 10
75.5
 20
75.8952
 11
106.1
 21
75.8952
  0
LINE
  8
0
 10
106.1
 20
75.8952
 11
106.1
 21
75.6952
  0
LINE
  8
0
 10
106.1
 20
75.6952
 11
75.5
 21
75.6952
  0
LINE
  8
0
 10
75.5
 20
75.6952
 11
75.5
 21
73.7586
  0
LINE
  8
0
 10
75.5
 20
73.7586
 11
106.1
 21
73.7586
  0
LINE
  8
0
 10
106.1
 20
73.7586
 11
106.1
 21
73.5586
  0
LINE
  8
0
 10
106.1
 20
73.5586
 11
75.5
 21
73.5586
  0
LINE
  8
0
 10
75.5
 20
73.5586
 11
75.5
 21
71.622
  0
LINE
  8
0
 10
75.5
 20
71.622
 11
106.1
 21
71.622
  0
LINE
  8
0
 10
106.1
 20
71.622
 11
106.1
 21
71.422
  0
LINE
  8
0
 10
106.1
 20
71.422
 11
75.5
 21
71.422
  0
LINE
  8
0
 10
75.5
 20
71.422
 11
75.5
 21
53.3855
  0
LINE
  8
0
 10
75.5
 20
53.3855
 11
75.5975
 21
51.8975
  0
LINE
  8
0
 10
75.5975
 20
51.8975
 11
75.8884
 21
50.4349
  0
LINE
  8
0
 10
75.8884
 20
50.4349
 11
76.3678
 21
49.0229
  0
LINE
  8
0
 10
76.3678
 20
49.0229
 11
77.0273
 21
47.6855
  0
LINE
  8
0
 10
77.0273
 20
47.6855
 11
77.8558
 21
46.4456
  0
LINE
  8
0
 10
77.8558
 20
46.4456
 11
78.839
 21
45.3245
  0
LINE
  8
0
 10
78.839
 20
45.3245
 11
79.9601
 21
44.3412
  0
LINE
  8
0
 10
79.9601
 20
44.3412
 11
81.2
 21
43.5128
  0
LINE
  8
0
 10
81.2
 20
43.5128
 11
82.5374
 21
42.8532
  0
LINE
  8
0
 10
82.5374
 20
42.8532
 11
83.9495
 21
42.3739
  0
LINE
  8
0
 10
83.9495
 20
42.3739
 11
85.412
 21
42.083
  0
LINE
  8
0
 10
85.412
 20
42.083
 11
86.9
 21
41.9855
  0
LINE
  8
0
 10
86.9
 20
41.9855
 11
164.9
 21
41.9855
  0
LINE
  8
0
 10
164.9
 20
41.9855
 11
166.388
 21
42.083
  0
LINE
  8
0
 10
166.388
 20
42.083
 11
167.851
 21
42.3739
  0
LINE
  8
0
 10
167.851
 20
42.3739
 11
169.263
 21
42.8532
  0
LINE
  8
0
 10
169.263
 20
42.8532
 11
170.6
 21
43.5128
  0
LINE
  8
0
 10
170.6
 20
43.5128
 11
171.84
 21
44.3412
  0
LINE
  8
0
 10
171.84
 20
44.3412
 11
172.961
 21
45.3245
  0
LINE
  8
0
 10
172.961
 20
45.3245
 11
173.944
 21
46.4456
  0
LINE
  8
0
 10
173.944
 20
46.4456
 11
174.773
 21
47.6855
  0
LINE
  8
0
 10
174.773
 20
47.6855
 11
175.432
 21
49.0229
  0
LINE
  8
0
 10
175.432
 20
49.0229
 11
175.912
 21
50.4349
  0
LINE
  8
0
 10
175.912
 20
50.4349
 11
176.202
 21
51.8975
  0
LINE
  8
0
 10
176.202
 20
51.8975
 11
176.3
 21
53.3855
  0
LINE
  8
0
 10
176.3
 20
53.3855
 11
176.3
 21
70.3538
  0
LINE
  8
0
 10
176.3
 20
70.3538
 11
145.7
 21
70.3538
  0
LINE
  8
0
 10
145.7
 20
70.3538
 11
145.7
 21
70.5538
  0
LINE
  8
0
 10
145.7
 20
70.5538
 11
176.3
 21
70.5538
  0
LINE
  8
0
 10
176.3
 20
70.5538
 11
176.3
 21
72.4903
  0
LINE
  8
0
 10
176.3
 20
72.4903
 11
145.7
 21
72.4903
  0
LINE
  8
0
 10
145.7
 20
72.4903
 11
145.7
 21
72.6903
  0
LINE
  8
0
 10
145.7
 20
72.6903
 11
176.3
 21
72.6903
  0
LINE
  8
0
 10
176.3
 20
72.6903
 11
176.3
 21
74.6269
  0
LINE
  8
0
 10
176.3
 20
74.6269
 11
145.7
 21
74.6269
  0
LINE
  8
0
 10
145.7
 20
74.6269
 11
145.7
 21
74.8269
  0
LINE
  8
0
 10
145.7
 20
74.8269
 11
176.3
 21
74.8269
  0
LINE
  8
0
 10
176.3
 20
74.8269
 11
176.3
 21
76.7634
  0
LINE
  8
0
 10
176.3
 20
76.7634
 11
145.7
 21
76.7634
  0
LINE
  8
0
 10
145.7
 20
76.7634
 11
145.7
 21
76.9634
  0
LINE
  8
0
 10
145.7
 20
76.9634
 11
176.3
 21
76.9634
  0
LINE
  8
0
 10
176.3
 20
76.9634
 11
176.3
 21
159.037
  0
LINE
  8
0
 10
176.3
 20
159.037
 11
145.7
 21
159.037
  0
LINE
  8
0
 10
145.7
 20
159.037
 11
145.7
 21
159.237
  0
LINE
  8
0
 10
145.7
 20
159.237
 11
176.3
 21
159.237
  0
LINE
  8
0
 10
176.3
 20
159.237
 11
176.3
 21
161.173
  0
LINE
  8
0
 10
176.3
 20
161.173
 11
145.7
 21
161.173
  0
LINE
  8
0
 10
145.7
 20
161.173
 11
145.7
 21
161.373
  0
LINE
  8
0
 10
145.7
 20
161.373
 11
176.3
 21
161.373
  0
LINE
  8
0
 10
176.3
 20
161.373
 11
176.3
 21
163.31
  0
LINE
  8
0
 10
176.3
 20
163.31
 11
145.7
 21
163.31
  0
LINE
  8
0
 10
145.7
 20
163.31
 11
145.7
 21
163.51
  0
LINE
  8
0
 10
145.7
 20
163.51
 11
176.3
 21
163.51
  0
LINE
  8
0
 10
176.3
 20
163.51
 11
176.3
 21
165.446
  0
LINE
  8
0
 10
176.3
 20
165.446
 11
145.7
 21
165.446
  0
LINE
  8
0
 10
145.7
 20
165.446
 11
145.7
 21
165.646
  0
LINE
  8
0
 10
145.7
 20
165.646
 11
176.3
 21
165.646
  0
LINE
  8
0
 10
176.3
 20
165.646
 11
176.3
 21
182.615
  0
LINE
  8
0
 10
176.3
 20
182.615
 11
176.202
 21
184.103
  0
LINE
  8
0
 10
176.202
 20
184.103
 11
175.912
 21
185.565
  0
LINE
  8
0
 10
175.912
 20
185.565
 11
175.432
 21
186.977
  0
LINE
  8
0
 10
175.432
 20
186.977
 11
174.773
 21
188.315
  0
LINE
  8
0
 10
174.773
 20
188.315
 11
173.944
 21
189.554
  0
LINE
  8
0
 10
173.944
 20
189.554
 11
172.961
 21
190.676
  0
LINE
  8
0
 10
172.961
 20
190.676
 11
171.84
 21
191.659
  0
LINE
  8
0
 10
171.84
 20
191.659
 11
170.6
 21
192.487
  0
LINE
  8
0
 10
170.6
 20
192.487
 11
169.263
 21
193.147
  0
LINE
  8
0
 10
169.263
 20
193.147
 11
167.851
 21
193.626
  0
LINE
  8
0
 10
167.851
 20
193.626
 11
166.388
 21
193.917
  0
LINE
  8
0
 10
166.388
 20
193.917
 11
164.9
 21
194.015
  0
LINE
  8
0
 10
164.9
 20
194.015
 11
86.9
 21
194.015
  0
LINE
  8
0
 10
86.9
 20
194.015
 11
85.412
 21
193.917
  0
LINE
  8
0
 10
85.412
 20
193.917
 11
83.9495
 21
193.626
  0
LINE
  8
0
 10
83.9495
 20
193.626
 11
82.5374
 21
193.147
  0
LINE
  8
0
 10
82.5374
 20
193.147
 11
81.2
 21
192.487
  0
LINE
  8
0
 10
81.2
 20
192.487
 11
79.9601
 21
191.659
  0
LINE
  8
0
 10
79.9601
 20
191.659
 11
78.839
 21
190.676
  0
LINE
  8
0
 10
78.839
 20
190.676
 11
77.8558
 21
189.554
  0
LINE
  8
0
 10
77.8558
 20
189.554
 11
77.0273
 21
188.315
  0
LINE
  8
0
 10
77.0273
 20
188.315
 11
76.3678
 21
186.977
  0
LINE
  8
0
 10
76.3678
 20
186.977
 11
75.8884
 21
185.565
  0
LINE
  8
0
 10
75.8884
 20
185.565
 11
75.5975
 21
184.103
  0
LINE
  8
0
 10
75.5975
 20
184.103
 11
75.5
 21
182.615
  0
LINE
  8
0
 10
75.5
 20
182.615
 11
75.5
 21
164.578
  0
LINE
  8
0
 10
75.5
 20
164.578
 11
106.1
 21
164.578
  0
LINE
  8
0
 10
106.1
 20
164.578
 11
106.1
 21
164.378
  0
LINE
  8
0
 10
106.1
 20
164.378
 11
75.5
 21
164.378
  0
LINE
  8
0
 10
75.5
 20
164.378
 11
75.5
 21
162.441
  0
LINE
  8
0
 10
75.5
 20
162.441
 11
106.1
 21
162.441
  0
LINE
  8
0
 10
106.1
 20
162.441
 11
106.1
 21
162.241
  0
LINE
  8
0
 10
106.1
 20
162.241
 11
75.5
 21
162.241
  0
LINE
  8
0
 10
173.3
 20
162.241
 11
112.1
 21
162.241
  0
LINE
  8
0
 10
112.1
 20
162.241
 11
112.1
 21
162.441
  0
LINE
  8
0
 10
112.1
 20
162.441
 11
173.3
 21
162.441
  0
LINE
  8
0
 10
173.3
 20
162.441
 11
173.3
 21
162.241
  0
LINE
  8
0
 10
130.9
 20
188.565
 11
130.9
 21
191.365
  0
LINE
  8
0
 10
130.9
 20
191.365
 11
140.9
 21
191.365
  0
LINE
  8
0
 10
140.9
 20
191.365
 11
140.9
 21
188.565
  0
LINE
  8
0
 10
140.9
 20
188.565
 11
130.9
 21
188.565
  0
LINE
  8
0
 10
90.9
 20
188.565
 11
90.9
 21
191.365
  0
LINE
  8
0
 10
90.9
 20
191.365
 11
100.9
 21
191.365
  0
LINE
  8
0
 10
100.9
 20
191.365
 11
100.9
 21
188.565
  0
LINE
  8
0
 10
100.9
 20
188.565
 11
90.9
 21
188.565
  0
LINE
  8
0
 10
110.9
 20
188.565
 11
110.9
 21
191.365
  0
LINE
  8
0
 10
110.9
 20
191.365
 11
120.9
 21
191.365
  0
LINE
  8
0
 10
120.9
 20
191.365
 11
120.9
 21
188.565
  0
LINE
  8
0
 10
120.9
 20
188.565
 11
110.9
 21
188.565
  0
LINE
  8
0
 10
150.9
 20
188.565
 11
150.9
 21
191.365
  0
LINE
  8
0
 10
150.9
 20
191.365
 11
160.9
 21
191.365
  0
LINE
  8
0
 10
160.9
 20
191.365
 11
160.9
 21
188.565
  0
LINE
  8
0
 10
160.9
 20
188.565
 11
150.9
 21
188.565
  0
LINE
  8
0
 10
78.2
 20
169.615
 11
78.2
 21
179.615
  0
LINE
  8
0
 10
78.2
 20
179.615
 11
80.9
 21
179.615
  0
LINE
  8
0
 10
80.9
 20
179.615
 11
80.9
 21
169.615
  0
LINE
  8
0
 10
80.9
 20
169.615
 11
78.2
 21
169.615
  0
LINE
  8
0
 10
170.9
 20
169.615
 11
170.9
 21
179.615
  0
LINE
  8
0
 10
170.9
 20
179.615
 11
173.6
 21
179.615
  0
LINE
  8
0
 10
173.6
 20
179.615
 11
173.6
 21
169.615
  0
LINE
  8
0
 10
173.6
 20
169.615
 11
170.9
 21
169.615
  0
LINE
  8
0
 10
78.5
 20
165.446
 11
78.5
 21
165.646
  0
LINE
  8
0
 10
78.5
 20
165.646
 11
139.7
 21
165.646
  0
LINE
  8
0
 10
139.7
 20
165.646
 11
139.7
 21
165.446
  0
LINE
  8
0
 10
139.7
 20
165.446
 11
78.5
 21
165.446
  0
LINE
  8
0
 10
112.1
 20
164.378
 11
112.1
 21
164.578
  0
LINE
  8
0
 10
112.1
 20
164.578
 11
173.3
 21
164.578
  0
LINE
  8
0
 10
173.3
 20
164.578
 11
173.3
 21
164.378
  0
LINE
  8
0
 10
173.3
 20
164.378
 11
112.1
 21
164.378
  0
LINE
  8
0
 10
78.5
 20
163.31
 11
78.5
 21
163.51
  0
LINE
  8
0
 10
78.5
 20
163.51
 11
139.7
 21
163.51
  0
LINE
  8
0
 10
139.7
 20
163.51
 11
139.7
 21
163.31
  0
LINE
  8
0
 10
139.7
 20
163.31
 11
78.5
 21
163.31
  0
LINE
  8
0
 10
78.5
 20
161.173
 11
78.5
 21
161.373
  0
LINE
  8
0
 10
78.5
 20
161.373
 11
139.7
 21
161.373
  0
LINE
  8
0
 10
139.7
 20
161.373
 11
139.7
 21
161.173
  0
LINE
  8
0
 10
139.7
 20
161.173
 11
78.5
 21
161.173
  0
LINE
  8
0
 10
112.1
 20
160.105
 11
112.1
 21
160.305
  0
LINE
  8
0
 10
112.1
 20
160.305
 11
173.3
 21
160.305
  0
LINE
  8
0
 10
173.3
 20
160.305
 11
173.3
 21
160.105
  0
LINE
  8
0
 10
173.3
 20
160.105
 11
112.1
 21
160.105
  0
LINE
  8
0
 10
78.5
 20
159.037
 11
78.5
 21
159.237
  0
LINE
  8
0
 10
78.5
 20
159.237
 11
139.7
 21
159.237
  0
LINE
  8
0
 10
139.7
 20
159.237
 11
139.7
 21
159.037
  0
LINE
  8
0
 10
139.7
 20
159.037
 11
78.5
 21
159.037
  0
LINE
  8
0
 10
112.1
 20
157.968
 11
112.1
 21
158.168
  0
LINE
  8
0
 10
112.1
 20
158.168
 11
173.3
 21
158.168
  0
LINE
  8
0
 10
173.3
 20
158.168
 11
173.3
 21
157.968
  0
LINE
  8
0
 10
173.3
 20
157.968
 11
112.1
 21
157.968
  0
LINE
  8
0
 10
78.2
 20
143
 11
78.2
 21
153
  0
LINE
  8
0
 10
78.2
 20
153
 11
80.9
 21
153
  0
LINE
  8
0
 10
80.9
 20
153
 11
80.9
 21
143
  0
LINE
  8
0
 10
80.9
 20
143
 11
78.2
 21
143
  0
LINE
  8
0
 10
170.9
 20
143
 11
170.9
 21
153
  0
LINE
  8
0
 10
170.9
 20
153
 11
173.6
 21
153
  0
LINE
  8
0
 10
173.6
 20
153
 11
173.6
 21
143
  0
LINE
  8
0
 10
173.6
 20
143
 11
170.9
 21
143
  0
LINE
  8
0
 10
78.2
 20
123
 11
78.2
 21
133
  0
LINE
  8
0
 10
78.2
 20
133
 11
80.9
 21
133
  0
LINE
  8
0
 10
80.9
 20
133
 11
80.9
 21
123
  0
LINE
  8
0
 10
80.9
 20
123
 11
78.2
 21
123
  0
LINE
  8
0
 10
170.9
 20
123
 11
170.9
 21
133
  0
LINE
  8
0
 10
170.9
 20
133
 11
173.6
 21
133
  0
LINE
  8
0
 10
173.6
 20
133
 11
173.6
 21
123
  0
LINE
  8
0
 10
173.6
 20
123
 11
170.9
 21
123
  0
LINE
  8
0
 10
170.9
 20
103
 11
170.9
 21
113
  0
LINE
  8
0
 10
170.9
 20
113
 11
173.6
 21
113
  0
LINE
  8
0
 10
173.6
 20
113
 11
173.6
 21
103
  0
LINE
  8
0
 10
173.6
 20
103
 11
170.9
 21
103
  0
LINE
  8
0
 10
78.2
 20
103
 11
78.2
 21
113
  0
LINE
  8
0
 10
78.2
 20
113
 11
80.9
 21
113
  0
LINE
  8
0
 10
80.9
 20
113
 11
80.9
 21
103
  0
LINE
  8
0
 10
80.9
 20
103
 11
78.2
 21
103
  0
LINE
  8
0
 10
170.9
 20
83
 11
170.9
 21
93
  0
LINE
  8
0
 10
170.9
 20
93
 11
173.6
 21
93
  0
LINE
  8
0
 10
173.6
 20
93
 11
173.6
 21
83
  0
LINE
  8
0
 10
173.6
 20
83
 11
170.9
 21
83
  0
LINE
  8
0
 10
78.2
 20
83
 11
78.2
 21
93
  0
LINE
  8
0
 10
78.2
 20
93
 11
80.9
 21
93
  0
LINE
  8
0
 10
80.9
 20
93
 11
80.9
 21
83
  0
LINE
  8
0
 10
80.9
 20
83
 11
78.2
 21
83
  0
LINE
  8
0
 10
112.1
 20
77.8317
 11
112.1
 21
78.0317
  0
LINE
  8
0
 10
112.1
 20
78.0317
 11
173.3
 21
78.0317
  0
LINE
  8
0
 10
173.3
 20
78.0317
 11
173.3
 21
77.8317
  0
LINE
  8
0
 10
173.3
 20
77.8317
 11
112.1
 21
77.8317
  0
LINE
  8
0
 10
78.5
 20
76.7634
 11
78.5
 21
76.9634
  0
LINE
  8
0
 10
78.5
 20
76.9634
 11
139.7
 21
76.9634
  0
LINE
  8
0
 10
139.7
 20
76.9634
 11
139.7
 21
76.7634
  0
LINE
  8
0
 10
139.7
 20
76.7634
 11
78.5
 21
76.7634
  0
LINE
  8
0
 10
112.1
 20
75.6952
 11
112.1
 21
75.8952
  0
LINE
  8
0
 10
112.1
 20
75.8952
 11
173.3
 21
75.8952
  0
LINE
  8
0
 10
173.3
 20
75.8952
 11
173.3
 21
75.6952
  0
LINE
  8
0
 10
173.3
 20
75.6952
 11
112.1
 21
75.6952
  0
LINE
  8
0
 10
78.5
 20
74.6269
 11
78.5
 21
74.8269
  0
LINE
  8
0
 10
78.5
 20
74.8269
 11
139.7
 21
74.8269
  0
LINE
  8
0
 10
139.7
 20
74.8269
 11
139.7
 21
74.6269
  0
LINE
  8
0
 10
139.7
 20
74.6269
 11
78.5
 21
74.6269
  0
LINE
  8
0
 10
112.1
 20
73.5586
 11
112.1
 21
73.7586
  0
LINE
  8
0
 10
112.1
 20
73.7586
 11
173.3
 21
73.7586
  0
LINE
  8
0
 10
173.3
 20
73.7586
 11
173.3
 21
73.5586
  0
LINE
  8
0
 10
173.3
 20
73.5586
 11
112.1
 21
73.5586
  0
LINE
  8
0
 10
78.5
 20
72.4903
 11
78.5
 21
72.6903
  0
LINE
  8
0
 10
78.5
 20
72.6903
 11
139.7
 21
72.6903
  0
LINE
  8
0
 10
139.7
 20
72.6903
 11
139.7
 21
72.4903
  0
LINE
  8
0
 10
139.7
 20
72.4903
 11
78.5
 21
72.4903
  0
LINE
  8
0
 10
112.1
 20
71.422
 11
112.1
 21
71.622
  0
LINE
  8
0
 10
112.1
 20
71.622
 11
173.3
 21
71.622
  0
LINE
  8
0
 10
173.3
 20
71.622
 11
173.3
 21
71.422
  0
LINE
  8
0
 10
173.3
 20
71.422
 11
112.1
 21
71.422
  0
LINE
  8
0
 10
78.5
 20
70.3538
 11
78.5
 21
70.5538
  0
LINE
  8
0
 10
78.5
 20
70.5538
 11
139.7
 21
70.5538
  0
LINE
  8
0
 10
139.7
 20
70.5538
 11
139.7
 21
70.3538
  0
LINE
  8
0
 10
139.7
 20
70.3538
 11
78.5
 21
70.3538
  0
LINE
  8
0
 10
170.9
 20
56.3855
 11
170.9
 21
66.3855
  0
LINE
  8
0
 10
170.9
 20
66.3855
 11
173.6
 21
66.3855
  0
LINE
  8
0
 10
173.6
 20
66.3855
 11
173.6
 21
56.3855
  0
LINE
  8
0
 10
173.6
 20
56.3855
 11
170.9
 21
56.3855
  0
LINE
  8
0
 10
78.2
 20
56.3855
 11
78.2
 21
66.3855
  0
LINE
  8
0
 10
78.2
 20
66.3855
 11
80.9
 21
66.3855
  0
LINE
  8
0
 10
80.9
 20
66.3855
 11
80.9
 21
56.3855
  0
LINE
  8
0
 10
80.9
 20
56.3855
 11
78.2
 21
56.3855
  0
LINE
  8
0
 10
150.9
 20
44.6355
 11
150.9
 21
47.4355
  0
LINE
  8
0
 10
150.9
 20
47.4355
 11
160.9
 21
47.4355
  0
LINE
  8
0
 10
160.9
 20
47.4355
 11
160.9
 21
44.6355
  0
LINE
  8
0
 10
160.9
 20
44.6355
 11
150.9
 21
44.6355
  0
LINE
  8
0
 10
90.9
 20
44.6355
 11
90.9
 21
47.4355
  0
LINE
  8
0
 10
90.9
 20
47.4355
 11
100.9
 21
47.4355
  0
LINE
  8
0
 10
100.9
 20
47.4355
 11
100.9
 21
44.6355
  0
LINE
  8
0
 10
100.9
 20
44.6355
 11
90.9
 21
44.6355
  0
LINE
  8
0
 10
130.9
 20
44.6355
 11
130.9
 21
47.4355
  0
LINE
  8
0
 10
130.9
 20
47.4355
 11
140.9
 21
47.4355
  0
LINE
  8
0
 10
140.9
 20
47.4355
 11
140.9
 21
44.6355
  0
LINE
  8
0
 10
140.9
 20
44.6355
 11
130.9
 21
44.6355
  0
LINE
  8
0
 10
110.9
 20
44.6355
 11
110.9
 21
47.4355
  0
LINE
  8
0
 10
110.9
 20
47.4355
 11
120.9
 21
47.4355
  0
LINE
  8
0
 10
120.9
 20
47.4355
 11
120.9
 21
44.6355
  0
LINE
  8
0
 10
120.9
 20
44.6355
 11
110.9
 21
44.6355
  0
ENDSEC
  0
SECTION
  2
OBJECTS
  0
DICTIONARY
  0
ENDSEC
  0
EOF
